<svg xmlns="http://www.w3.org/2000/svg" xml:space="preserve" style="enable-background:new 0 0 512 512" viewBox="0 0 512 512" fill="#319795">
  <path d="M486.4 460.8h-25.6V49.824c10.103-3.391 17.067-12.734 17.067-24.224 0-14.507-11.093-25.6-25.6-25.6H59.733c-14.507 0-25.6 11.093-25.6 25.6 0 11.362 7.329 20.629 17.067 24.113V460.8H25.6c-5.12 0-8.533 3.413-8.533 8.533s3.413 8.533 8.533 8.533h8.533v8.533c0 14.507 11.093 25.6 25.6 25.6h392.533c14.507 0 25.6-11.093 25.6-25.6v-8.533h8.533c5.12 0 8.533-3.413 8.533-8.533s-3.412-8.533-8.532-8.533zM59.733 17.067h392.533c5.12 0 8.533 3.413 8.533 8.533s-3.413 8.533-8.533 8.533H59.733c-5.12 0-8.533-4.267-8.533-8.533s4.267-8.533 8.533-8.533zM68.267 51.2h375.467v409.6h-17.067v-384c0-5.12-3.413-8.533-8.533-8.533H93.867c-5.12 0-8.533 3.413-8.533 8.533v384H68.267V51.2zM409.6 315.733H102.4v-230.4h307.2v230.4zM102.4 332.8h307.2v128H102.4v-128zm358.4 153.6c0 5.12-3.413 8.533-8.533 8.533H59.733c-5.12 0-8.533-3.413-8.533-8.533v-8.533h409.599v8.533z"/>
  <path d="M128 145.067c2.56 0 4.267-.853 5.973-2.56l25.6-25.6c3.413-3.413 3.413-8.533 0-11.947s-8.533-3.413-11.947 0l-25.6 25.6c-3.413 3.413-3.413 8.533 0 11.947 1.707 1.706 3.414 2.56 5.974 2.56zM190.293 159.573c1.707 1.707 3.413 2.56 5.973 2.56s4.267-.853 5.973-2.56l42.667-42.667c3.413-3.413 3.413-8.533 0-11.947s-8.533-3.413-11.947 0l-42.667 42.667c-3.412 3.414-3.412 8.534.001 11.947zM128 230.4c2.56 0 4.267-.853 5.973-2.56l17.067-17.067c3.413-3.413 3.413-8.533 0-11.947s-8.533-3.413-11.947 0l-17.067 17.067c-3.413 3.413-3.413 8.533 0 11.947 1.707 1.707 3.414 2.56 5.974 2.56zM128 187.733c2.56 0 4.267-.853 5.973-2.56l17.067-17.067c3.413-3.413 3.413-8.533 0-11.947s-8.533-3.413-11.947 0l-17.067 17.067c-3.413 3.413-3.413 8.533 0 11.947 1.707 1.707 3.414 2.56 5.974 2.56zM164.693 142.507c1.707 1.707 3.413 2.56 5.973 2.56s4.267-.853 5.973-2.56l25.6-25.6c3.413-3.413 3.413-8.533 0-11.947s-8.533-3.413-11.947 0l-25.6 25.6c-3.412 3.413-3.412 8.533.001 11.947zM170.667 170.667c-5.12 0-8.533 3.413-8.533 8.533s3.413 8.533 8.533 8.533c5.12 0 8.533-3.413 8.533-8.533s-3.413-8.533-8.533-8.533z"/>
</svg> 
