<svg width="273" height="80" viewBox="0 0 273 80" xmlns="http://www.w3.org/2000/svg" fill="#319795">
  <path d="M13.531 37.4548H23.7037C43.7608 37.4548 44.1444 0.395386 24.2792 0.395386H2.49465C0.57656 0.395386 0 1.40611 0 3.31466V75.9737C0 79.7922 4.99044 80.1295 4.99044 75.9737V6.90996H24.2792C36.8512 6.90996 36.3711 31.8393 23.7037 31.7278H11.1317C9.78793 31.7278 8.3488 32.6256 8.3488 34.647V75.6364C8.3488 80.1295 13.531 80.354 13.531 75.6364V37.4548Z"/>
  <path d="M50.574 3.09016V76.1982C50.574 78.2196 51.533 79.1188 53.0687 79.1188H82.1465C86.7533 79.1188 85.6013 72.4913 82.1465 72.4913H56.2352V6.12365H79.46C82.9148 6.12365 82.9148 -0.0535682 79.46 0.170889H53.0687C51.3412 0.170889 50.574 1.29317 50.574 3.09016ZM66.5044 36.8929H75.9087C79.46 36.8929 78.8834 30.9415 75.9087 30.9415H63.3378C61.6104 30.9415 60.842 32.0637 60.842 33.8607V65.0802C60.842 68.5626 66.5044 69.236 66.5044 65.0802V36.8929Z" />
  <path d="M100.573 3.09016V76.1982C100.573 78.2196 101.532 79.1188 103.067 79.1188H132.145C136.752 79.1188 135.6 72.4913 132.145 72.4913H106.234V6.12365H129.459C132.913 6.12365 132.913 -0.0535682 129.459 0.170889H103.067C101.34 0.170889 100.573 1.29317 100.573 3.09016ZM116.503 36.8929H125.907C129.459 36.8929 128.882 30.9415 125.907 30.9415H113.335C111.608 30.9415 110.841 32.0637 110.841 33.8607V65.0802C110.841 68.5626 116.503 69.236 116.503 65.0802V36.8929Z" />
  <path d="M171.299 34.7599C169.668 36.7813 169.763 39.0273 171.299 40.7114L204.215 78.2196C206.711 81.1402 209.974 75.7493 206.999 72.2682L176.77 37.6792L202.104 6.57124C205.656 2.19233 201.145 -1.51318 199.418 0.621156L171.299 34.7599ZM160.264 75.6364C160.264 80.1295 165.445 80.354 165.445 75.6364V3.54043C165.445 -0.502462 160.264 -0.278004 160.264 3.54043V75.6364ZM150.571 75.6364C150.571 80.1295 155.753 80.354 155.753 75.6364V3.54043C155.753 -0.502462 150.571 -0.278004 150.571 3.54043V75.6364Z" />
  <path d="M236.556 45.316V76.3111C236.556 80.0166 241.643 80.1295 241.643 76.3111V43.1817L221.009 2.52969C218.995 -1.40163 214.676 2.4168 216.404 5.78631L236.556 45.316ZM246.825 43.1817V76.3111C246.825 80.0166 251.911 80.0166 251.911 76.3111V45.316L272.063 5.78631C273.887 2.3039 269.377 -1.28874 267.458 2.52969L246.825 43.1817Z" />
</svg>
